<?xml version="1.0" encoding="UTF-8" standalone="no"?>
<svg
   xmlns:dc="http://purl.org/dc/elements/1.1/"
   xmlns:cc="http://creativecommons.org/ns#"
   xmlns:rdf="http://www.w3.org/1999/02/22-rdf-syntax-ns#"
   xmlns:svg="http://www.w3.org/2000/svg"
   xmlns="http://www.w3.org/2000/svg"
   xmlns:sodipodi="http://sodipodi.sourceforge.net/DTD/sodipodi-0.dtd"
   xmlns:inkscape="http://www.inkscape.org/namespaces/inkscape"
   version="1.1"
   id="Layer_1"
   x="0px"
   y="0px"
   width="100px"
   height="100px"
   viewBox="0 0 100 100"
   enable-background="new 0 0 100 100"
   xml:space="preserve"
   inkscape:version="0.48.4 r9939"
   sodipodi:docname="car2.svg"><metadata
     id="metadata9"><rdf:RDF><cc:Work
         rdf:about=""><dc:format>image/svg+xml</dc:format><dc:type
           rdf:resource="http://purl.org/dc/dcmitype/StillImage" /></cc:Work></rdf:RDF></metadata><defs
     id="defs7" /><sodipodi:namedview
     pagecolor="#ffffff"
     bordercolor="#666666"
     borderopacity="1"
     objecttolerance="10"
     gridtolerance="10"
     guidetolerance="10"
     inkscape:pageopacity="0"
     inkscape:pageshadow="2"
     inkscape:window-width="1301"
     inkscape:window-height="744"
     id="namedview5"
     showgrid="false"
     inkscape:zoom="4.72"
     inkscape:cx="74.894378"
     inkscape:cy="60.122118"
     inkscape:window-x="65"
     inkscape:window-y="24"
     inkscape:window-maximized="1"
     inkscape:current-layer="Layer_1" /><path
     stroke-miterlimit="10"
     d="m 87.346,31.545 -23.845,0 c 0.028,-0.203 0.051,-0.409 0.051,-0.623 0,-1.954 -1.259,-3.538 -2.813,-3.538 l 0,4.16 -46.445,0 c 0,0 -7.74,1.693 -7.74,8.466 l 0,8.467 0,3.023 0,8.467 c 0,6.773 7.74,8.466 7.74,8.466 l 46.444,0 0,4.523 c 1.555,0 2.813,-1.583 2.813,-3.538 0,-0.345 -0.052,-0.671 -0.126,-0.985 l 23.92,0 c 5.563,-1.45 7.499,-9.106 7.499,-9.106 l 0,-7.826 0,-3.023 0,-7.827 c 0.001,0 -1.936,-7.655 -7.498,-9.106 z m -60.231,1.935 32.052,0 0,1.451 c 0,0 -10.072704,4.016221 -20.54451,3.30144 C 34.670146,37.962663 30.660948,37.018947 27.115,34.931 z m -8.708,5.023 13.062,2.782 0,17.892 -13.062,3.023 c 0,0 -5.08,-7.973 0,-23.697 z m 40.76,28.117 -32.052,0 0,-1.451 c 12.941,-7.62 32.052,0 32.052,0 z m 8.709,-3.209 -12.097,-3.508 0,-19.585 12.097,-3.387 c 6.772,13.909 0,26.48 0,26.48 z m 18.198,0 c -1.271,0 -4.3,-1.49 -4.3,-3.326 0,-1.839 3.029,-3.328 4.3,-3.328 1.268,0 2.297,1.489 2.297,3.328 0,1.836 -1.029,3.326 -2.297,3.326 z m 0,-19.828 c -1.271,0 -4.3,-1.489 -4.3,-3.326 0,-1.837 3.029,-3.327 4.3,-3.327 1.268,0 2.297,1.489 2.297,3.327 0,1.838 -1.029,3.326 -2.297,3.326 z"
     id="path3"
     inkscape:connector-curvature="0"
     style="stroke:#000000;stroke-miterlimit:10"
     sodipodi:nodetypes="ccscccsccscccsccccccccccscccccccccccccccccssssssssss" /></svg>